# xmcd
#
# Track frame offsets: 
#        150
#        19280
#        36020
#        53195
#        72857
#        92975
#        116982
#        135167
#
# Disc length: 2001 seconds
#
# Revision: 0
# Processed by: cddbd v1.5.1PL2 Copyright (c) Steve Scherf et al.
# Submitted via: ExactAudioCopy v0.95b3
#
DISCID=6b07cf08
DTITLE=The O'Jays - Survival
DYEAR=1975
DGENRE=Soul
TTITLE0=Give The People What They Want
TTITLE1=Let Me Make Love To You
TTITLE2=Survival
TTITLE3=Where Did We Go Wrong
TTITLE4=Rich Get Richer
TTITLE5=How Time Flies
TTITLE6=What Am I Waiting For
TTITLE7=Never Break Us Up
EXTD=
EXTT0=
EXTT1=
EXTT2=
EXTT3=
EXTT4=
EXTT5=
EXTT6=
EXTT7=
PLAYORDER=
